<svg id="e470295d-6d5e-4123-88f1-170a4c996bf6" data-name="Layer 1" xmlns="http://www.w3.org/2000/svg" xmlns:xlink="http://www.w3.org/1999/xlink" width="1156" height="853.86562" viewBox="0 0 1156 853.86562"><defs><linearGradient id="b25944ff-9dac-4ece-9cd5-369bec2dcc7e" x1="331.45429" y1="247.78906" x2="331.45429" y2="152.96225" gradientUnits="userSpaceOnUse"><stop offset="0" stop-color="gray" stop-opacity="0.25"/><stop offset="0.53514" stop-color="gray" stop-opacity="0.12"/><stop offset="1" stop-color="gray" stop-opacity="0.1"/></linearGradient><linearGradient id="e5c18c70-8333-456c-9a9a-a560a8a1df4a" x1="732.11234" y1="433.30143" x2="732.11234" y2="428.93281" xlink:href="#b25944ff-9dac-4ece-9cd5-369bec2dcc7e"/><linearGradient id="aed97018-9679-4389-abbb-4ec6ddd6c90a" x1="732.16087" y1="437.84479" x2="732.16087" y2="433.47617" xlink:href="#b25944ff-9dac-4ece-9cd5-369bec2dcc7e"/><linearGradient id="f168bc82-cb40-4c01-bf64-d7c9e8873b73" x1="732.20939" y1="442.38815" x2="732.20939" y2="438.01953" xlink:href="#b25944ff-9dac-4ece-9cd5-369bec2dcc7e"/><linearGradient id="ab2fd005-f827-4612-8fd5-54b569db2aac" x1="716.76928" y1="454.50298" x2="716.76928" y2="445.29097" xlink:href="#b25944ff-9dac-4ece-9cd5-369bec2dcc7e"/><linearGradient id="a094d062-656a-4d8b-8d76-b94aa9c96f5a" x1="747.3496" y1="454.59036" x2="747.3496" y2="445.37834" xlink:href="#b25944ff-9dac-4ece-9cd5-369bec2dcc7e"/><linearGradient id="ab5fc1a7-7de7-45a3-96f7-afbd4f89d311" x1="444.11234" y1="433.30143" x2="444.11234" y2="428.93281" xlink:href="#b25944ff-9dac-4ece-9cd5-369bec2dcc7e"/><linearGradient id="b1df0ade-7eb3-414a-97b0-1130f05983c2" x1="444.16087" y1="437.84479" x2="444.16087" y2="433.47617" xlink:href="#b25944ff-9dac-4ece-9cd5-369bec2dcc7e"/><linearGradient id="f75ff1e1-ace8-4ad0-bab5-336d7c0797a1" x1="444.20939" y1="442.38815" x2="444.20939" y2="438.01953" xlink:href="#b25944ff-9dac-4ece-9cd5-369bec2dcc7e"/><linearGradient id="fffa4598-7959-4a4f-a2bf-1d797ff60a1c" x1="428.76928" y1="454.50298" x2="428.76928" y2="445.29097" xlink:href="#b25944ff-9dac-4ece-9cd5-369bec2dcc7e"/><linearGradient id="fb49b999-8eda-400d-bdd0-883f8a0355dd" x1="459.3496" y1="454.59036" x2="459.3496" y2="445.37834" xlink:href="#b25944ff-9dac-4ece-9cd5-369bec2dcc7e"/><linearGradient id="b6eff350-326d-4332-957c-97b58c4f3424" x1="300.11234" y1="433.30143" x2="300.11234" y2="428.93281" xlink:href="#b25944ff-9dac-4ece-9cd5-369bec2dcc7e"/><linearGradient id="f1ac0358-37ad-45d4-9861-93b4adf7f74a" x1="300.16087" y1="437.84479" x2="300.16087" y2="433.47617" xlink:href="#b25944ff-9dac-4ece-9cd5-369bec2dcc7e"/><linearGradient id="a7bc1a1d-8b92-409c-8798-27ff3feb9595" x1="300.20939" y1="442.38815" x2="300.20939" y2="438.01953" xlink:href="#b25944ff-9dac-4ece-9cd5-369bec2dcc7e"/><linearGradient id="f2bbb278-f584-4368-a39b-ddb614601dbd" x1="284.76928" y1="454.50298" x2="284.76928" y2="445.29097" xlink:href="#b25944ff-9dac-4ece-9cd5-369bec2dcc7e"/><linearGradient id="a739eb6a-54b7-44dc-b402-384151070445" x1="315.3496" y1="454.59036" x2="315.3496" y2="445.37834" xlink:href="#b25944ff-9dac-4ece-9cd5-369bec2dcc7e"/></defs><title>Golden gate bridge</title><path d="M415.4252,585.39591s22-7.57456,38,0,42,2.52485,50-1.51491,44,1.51491,48,5.55467,20,9.08948,31,5.04971,33-13.12924,42-7.57456" transform="translate(-4.9252 -23.06719)" fill="#2196f3"/><path d="M415.4252,585.39591s22-7.57456,38,0,42,2.52485,50-1.51491,44,1.51491,48,5.55467,20,9.08948,31,5.04971,33-13.12924,42-7.57456" transform="translate(-4.9252 -23.06719)" opacity="0.2"/><path d="M336.4252,526.02944s50.421-15,87.09091,0,96.25837,5,114.5933-3,100.8421,3,110.00957,11,45.83732,18,71.04784,10,75.63158-26,96.25838-15" transform="translate(-4.9252 -23.06719)" fill="#2196f3"/><path d="M336.4252,526.02944s50.421-15,87.09091,0,96.25837,5,114.5933-3,100.8421,3,110.00957,11,45.83732,18,71.04784,10,75.63158-26,96.25838-15" transform="translate(-4.9252 -23.06719)" opacity="0.2"/>
<path d="M145.31544,472.02944" transform="translate(-4.9252 -23.06719)" fill="none" stroke="#e8e8f2" stroke-miterlimit="10"/><path d="M335.4252,622.39591s9.05263-7.57456,15.63636,0,17.2823,2.52485,20.57416-1.51491,18.10527,1.51491,19.7512,5.55467,8.22966,9.08948,12.756,5.04971,13.579-13.12924,17.2823-7.57456" transform="translate(-4.9252 -23.06719)" fill="#fff"/><path d="M335.4252,622.39591s9.05263-7.57456,15.63636,0,17.2823,2.52485,20.57416-1.51491,18.10527,1.51491,19.7512,5.55467,8.22966,9.08948,12.756,5.04971,13.579-13.12924,17.2823-7.57456" transform="translate(-4.9252 -23.06719)" opacity="0.2"/><path d="M175.4252,549.39591s9.05263-7.57456,15.63636,0,17.2823,2.52485,20.57416-1.51491,18.10527,1.51491,19.7512,5.55467,8.22966,9.08948,12.756,5.04971,13.579-13.12924,17.2823-7.57456" transform="translate(-4.9252 -23.06719)" fill="#2196f3"/><path d="M175.4252,549.39591s9.05263-7.57456,15.63636,0,17.2823,2.52485,20.57416-1.51491,18.10527,1.51491,19.7512,5.55467,8.22966,9.08948,12.756,5.04971,13.579-13.12924,17.2823-7.57456" transform="translate(-4.9252 -23.06719)" opacity="0.2"/><path d="M81.4252,636.39591s9.05263-7.57456,15.63636,0,17.2823,2.52485,20.57416-1.51491,18.10527,1.51491,19.7512,5.55467,8.22966,9.08948,12.756,5.04971,13.57895-13.12924,17.2823-7.57456" transform="translate(-4.9252 -23.06719)" fill="#2196f3"/><path d="M81.4252,636.39591s9.05263-7.57456,15.63636,0,17.2823,2.52485,20.57416-1.51491,18.10527,1.51491,19.7512,5.55467,8.22966,9.08948,12.756,5.04971,13.57895-13.12924,17.2823-7.57456" transform="translate(-4.9252 -23.06719)" opacity="0.2"/><path d="M807.4252,562.39591s9.05263-7.57456,15.63636,0,17.2823,2.52485,20.57416-1.51491,18.10527,1.51491,19.7512,5.55467,8.22966,9.08948,12.756,5.04971,13.57895-13.12924,17.2823-7.57456" transform="translate(-4.9252 -23.06719)" fill="#2196f3"/><path d="M807.4252,562.39591s9.05263-7.57456,15.63636,0,17.2823,2.52485,20.57416-1.51491,18.10527,1.51491,19.7512,5.55467,8.22966,9.08948,12.756,5.04971,13.57895-13.12924,17.2823-7.57456" transform="translate(-4.9252 -23.06719)" opacity="0.2"/><path d="M952.4252,691.39591s9.05263-7.57456,15.63636,0,17.2823,2.52485,20.57416-1.51491,18.10527,1.51491,19.7512,5.55467,8.22966,9.08948,12.756,5.04971,13.57895-13.12924,17.2823-7.57456" transform="translate(-4.9252 -23.06719)" fill="#2196f3"/><path d="M952.4252,691.39591s9.05263-7.57456,15.63636,0,17.2823,2.52485,20.57416-1.51491,18.10527,1.51491,19.7512,5.55467,8.22966,9.08948,12.756,5.04971,13.57895-13.12924,17.2823-7.57456" transform="translate(-4.9252 -23.06719)" opacity="0.2"/><path d="M230.4252,698.39591s31.26315-7.57456,54,0,59.68421,2.52485,71.05263-1.51491,62.52631,1.51491,68.21052,5.55467,28.42106,9.08948,44.05264,5.04971,46.89473-13.12924,59.68421-7.57456" transform="translate(-4.9252 -23.06719)" fill="#2196f3"/><path d="M137.4252,771.63739s31.26315-8.11789,54,0,59.68421,2.706,71.05263-1.62358,62.52631,1.62358,68.21052,5.95312,28.42106,9.74146,44.05264,5.41192,46.89473-14.071,59.68421-8.11789" transform="translate(-4.9252 -23.06719)" fill="#2196f3"/><path d="M475.4252,785.39591s13.15789-7.57456,22.72727,0,25.11962,2.52485,29.90431-1.51491,26.31579,1.51491,28.70813,5.55467,11.96172,9.08948,18.54067,5.04971,19.73684-13.12924,25.11962-7.57456" transform="translate(-4.9252 -23.06719)" fill="#2196f3" opacity="0.25"/><path d="M837.4252,750.39591s13.15789-7.57456,22.72727,0,25.11962,2.52485,29.90431-1.51491,26.31579,1.51491,28.70813,5.55467,11.96172,9.08948,18.54067,5.04971,19.73684-13.12924,25.11962-7.57456" transform="translate(-4.9252 -23.06719)" fill="#2196f3"/><path d="M600.4252,691.39591s13.15789-7.57456,22.72727,0,25.11962,2.52485,29.90431-1.51491,26.31579,1.51491,28.70813,5.55467,11.96172,9.08948,18.54067,5.04971,19.73684-13.12924,25.11962-7.57456" transform="translate(-4.9252 -23.06719)" fill="#2196f3"/><path d="M655.4252,797.39591s13.15789-7.57456,22.72727,0,25.11962,2.52485,29.90431-1.51491,26.31579,1.51491,28.70813,5.55467,11.96172,9.08948,18.54067,5.04971,19.73684-13.12924,25.11962-7.57456" transform="translate(-4.9252 -23.06719)" fill="#2196f3"/><path d="M758.4252,643.39591s16.63158-7.57456,28.72727,0,31.7512,2.52485,37.799-1.51491,33.26316,1.51491,36.28708,5.55467,15.11962,9.08948,23.43541,5.04971,24.94737-13.12924,31.7512-7.57456" transform="translate(-4.9252 -23.06719)" fill="#2196f3"/><path d="M758.4252,643.39591s16.63158-7.57456,28.72727,0,31.7512,2.52485,37.799-1.51491,33.26316,1.51491,36.28708,5.55467,15.11962,9.08948,23.43541,5.04971,24.94737-13.12924,31.7512-7.57456" transform="translate(-4.9252 -23.06719)" opacity="0.2"/><circle cx="717.36672" cy="430.8972" r="0.57575" fill="#e8e8f2"/><circle cx="717.36672" cy="435.50321" r="0.57575" fill="#e8e8f2"/><circle cx="717.36672" cy="440.10921" r="0.57575" fill="#e8e8f2"/><circle cx="746.79399" cy="440.10921" r="0.57575" fill="#e8e8f2"/><circle cx="746.79399" cy="435.50321" r="0.57575" fill="#e8e8f2"/><circle cx="746.79399" cy="430.8972" r="0.57575" fill="#e8e8f2"/><circle cx="429.36672" cy="430.8972" r="0.57575" fill="#e8e8f2"/><circle cx="429.36672" cy="435.50321" r="0.57575" fill="#e8e8f2"/><circle cx="429.36672" cy="440.10921" r="0.57575" fill="#e8e8f2"/><circle cx="458.79399" cy="440.10921" r="0.57575" fill="#e8e8f2"/><circle cx="458.79399" cy="435.50321" r="0.57575" fill="#e8e8f2"/><circle cx="458.79399" cy="430.8972" r="0.57575" fill="#e8e8f2"/><circle cx="285.36672" cy="430.8972" r="0.57575" fill="#e8e8f2"/><circle cx="285.36672" cy="435.50321" r="0.57575" fill="#e8e8f2"/><circle cx="285.36672" cy="440.10921" r="0.57575" fill="#e8e8f2"/><circle cx="314.79399" cy="440.10921" r="0.57575" fill="#e8e8f2"/><circle cx="314.79399" cy="435.50321" r="0.57575" fill="#e8e8f2"/><circle cx="314.79399" cy="430.8972" r="0.57575" fill="#e8e8f2"/><rect x="283.89556" y="445.29097" width="1.74745" height="9.21201" rx="0.87372" fill="url(#f2bbb278-f584-4368-a39b-ddb614601dbd)"/><rect x="314.47588" y="445.37834" width="1.74745" height="9.21201" rx="0.87372" fill="url(#a739eb6a-54b7-44dc-b402-384151070445)"/><rect x="284.21522" y="445.29097" width="1.1515" height="9.21201" rx="0.57575" fill="#e8e8f2"/><rect x="314.79399" y="445.29097" width="1.1515" height="9.21201" rx="0.57575" fill="#e8e8f2"/><path d="M565.4252,209h-3.55078a2.4988,2.4988,0,0,0-2.44922-3h-78a2.5,2.5,0,0,0,0,5H484.976a2.4988,2.4988,0,0,0,2.44922,3h-13a2.5,2.5,0,0,0,0,5h78a2.5,2.5,0,0,0,0-5h13a2.5,2.5,0,0,0,0-5Z" transform="translate(-4.9252 -23.06719)" fill="#e8e8f2" opacity="0.1"/><path d="M962.4252,169h-3.55078a2.4988,2.4988,0,0,0-2.44922-3h-78a2.5,2.5,0,0,0,0,5H881.976a2.4988,2.4988,0,0,0,2.44922,3h-13a2.5,2.5,0,0,0,0,5h78a2.5,2.5,0,1,0,0-5h13a2.5,2.5,0,1,0,0-5Z" transform="translate(-4.9252 -23.06719)" fill="#e8e8f2" opacity="0.1"/><path d="M782.4252,290h-3.55078a2.4988,2.4988,0,0,0-2.44922-3h-78a2.5,2.5,0,0,0,0,5H701.976a2.4988,2.4988,0,0,0,2.44922,3h-13a2.5,2.5,0,0,0,0,5h78a2.5,2.5,0,1,0,0-5h13a2.5,2.5,0,1,0,0-5Z" transform="translate(-4.9252 -23.06719)" fill="#e8e8f2" opacity="0"/></svg>