<svg height="512pt" viewBox="0 0 512 512" width="512pt" xmlns="http://www.w3.org/2000/svg"><path d="m220.867188 59.992188c-88.707032 0-160.875 72.167968-160.875 160.875 0 88.707031 72.167968 160.875 160.875 160.875 88.703124 0 160.871093-72.167969 160.871093-160.875 0-88.707032-72.167969-160.875-160.871093-160.875zm0 291.75c-72.167969 0-130.878907-58.710938-130.878907-130.875 0-72.167969 58.710938-130.878907 130.878907-130.878907 72.164062 0 130.875 58.710938 130.875 130.878907 0 72.164062-58.710938 130.875-130.875 130.875zm0 0"/><path d="m512 441.257812-103.699219-103.695312c21.171875-33.882812 33.429688-73.882812 33.429688-116.695312 0-121.785157-99.078125-220.867188-220.863281-220.867188-121.785157 0-220.867188 99.082031-220.867188 220.867188 0 121.785156 99.082031 220.867187 220.867188 220.867187 42.8125 0 82.808593-12.257813 116.691406-33.429687l103.699218 103.695312zm-482.003906-220.390624c0-105.246094 85.625-190.871094 190.871094-190.871094 105.246093 0 190.867187 85.625 190.867187 190.871094 0 105.246093-85.621094 190.871093-190.867187 190.871093-105.246094 0-190.871094-85.625-190.871094-190.871093zm360.488281 141.296874 79.09375 79.09375-28.320313 28.320313-79.09375-79.09375c10.269532-8.570313 19.75-18.050781 28.320313-28.320313zm0 0"/><path d="m202.457031 246.773438-46.816406-46.816407-21.210937 21.210938 68.027343 68.027343 104.84375-104.84375-21.210937-21.210937zm0 0"/></svg>