<svg height="512pt" viewBox="0 0 512 512" width="512pt" xmlns="http://www.w3.org/2000/svg"><path d="m435.921875 332.664062c-3.707031-21.511718-14.140625-41.261718-30.121094-56.625-19.277343-18.535156-44.625-28.742187-71.378906-28.742187-3.925781 0-7.84375.246094-11.734375.695313v-86.992188h73.011719l-139.699219-161-139.699219 161h73.011719v30.050781c-.105469 0-.210938-.003906-.316406-.003906-71.464844 0-129.609375 58.144531-129.609375 129.613281 0 5.328125.328125 10.652344.976562 15.933594-35.730469 12.410156-60.363281 46.136719-60.363281 85.148438 0 49.734374 40.464844 90.199218 90.199219 90.199218h331.601562c49.734375 0 90.199219-40.464844 90.199219-90.199218 0-44.800782-33.066406-82.257813-76.078125-89.078126zm-253.871094-201.664062 73.949219-85.222656 73.949219 85.222656h-37.261719v111.914062c-18.113281-24.0625-44.164062-41.152343-73.375-48.230468v-63.683594zm239.75 350.941406h-331.601562c-33.191407 0-60.199219-27.003906-60.199219-60.199218 0-29.476563 21.0625-54.429688 50.082031-59.335938l15.851563-2.679688-3.769532-15.625c-1.84375-7.648437-2.777343-15.535156-2.777343-23.441406 0-54.925781 44.683593-99.609375 99.609375-99.609375 38.699218 0 74.207031 22.707031 90.460937 57.855469l6.664063 14.410156 14.007812-7.472656c10.640625-5.671875 22.175782-8.546875 34.292969-8.546875 39.25 0 71.289063 30.699219 72.9375 69.890625l.601563 14.265625 14.277343.101563c32.953125.234374 59.761719 27.234374 59.761719 60.1875 0 33.195312-27.007812 60.199218-60.199219 60.199218zm0 0"/></svg>