<svg xmlns="http://www.w3.org/2000/svg" xmlns:xlink="http://www.w3.org/1999/xlink" width="2518" height="186" viewBox="0 0 2518 186"><defs><path id="a" d="M539 170.68c61.7-22 83.9-76.98 169.42-57.62 85.53 19.36 309.45 112.4 376.34 105.8 66.89-6.61 173.44-85.47 263.29-69.7 89.85 15.77 137.53 88.9 137.95 144.84H0s48.64-102.36 135.24-116.68c86.6-14.32 130.64 24.2 205.65 24.2 55.78 0 136.41-8.84 198.11-30.84z"/><path id="b" d="M2113.88 123.55c-63.78 26.12-95.39 79.97-301.73 79.97-66.62 0-115.98-25.9-148.75-29.18-55.6-5.57-129.15 64.41-175.38 64.61-54.02.24-98.98-41.73-209.25-41.73C1186.62 197.22 1093 294 1093 294h1425s-118-106.53-178-146.91c-60-40.38-162.35-49.66-226.12-23.54z"/></defs><use fill="#e3e9ed" xlink:href="#a" opacity=".67" transform="translate(0 -108)"/><use fill="#e3e9ed" xlink:href="#b" opacity=".67" transform="translate(0 -108)"/></svg>